<svg width="45" height="30" viewBox="0 0 45 30" fill="none" xmlns="http://www.w3.org/2000/svg">
<path d="M19.6875 2.1186C16.6211 0.719811 13.2543 -0.00478207 9.84375 2.37502e-05C6.31406 2.37502e-05 2.97281 0.764186 0 2.1186V28.469C3.06646 27.0703 6.43319 26.3458 9.84375 26.3505C14.5378 26.3505 18.8944 27.6943 22.5 30C26.2296 27.6159 30.6413 26.3438 35.1562 26.3505C38.6859 26.3505 42.0272 27.1146 45 28.469V2.1186C41.9336 0.719811 38.5668 -0.00478207 35.1562 2.37502e-05C31.6266 2.37502e-05 28.2853 0.764186 25.3125 2.1186V21.0804C25.3125 21.7792 25.0162 22.4495 24.4887 22.9436C23.9613 23.4378 23.2459 23.7154 22.5 23.7154C21.7541 23.7154 21.0387 23.4378 20.5113 22.9436C19.9838 22.4495 19.6875 21.7792 19.6875 21.0804V2.1186Z" fill="#A8A8A8"/>
</svg>
