<svg width="32" height="32" viewBox="0 0 32 32" fill="none" xmlns="http://www.w3.org/2000/svg">
<path fill-rule="evenodd" clip-rule="evenodd" d="M4.57143 0C3.35901 0 2.19625 0.481631 1.33894 1.33894C0.481631 2.19625 0 3.35901 0 4.57143V27.4286C0 28.641 0.481631 29.8038 1.33894 30.6611C2.19625 31.5184 3.35901 32 4.57143 32H27.4286C28.641 32 29.8038 31.5184 30.6611 30.6611C31.5184 29.8038 32 28.641 32 27.4286V4.57143C32 3.35901 31.5184 2.19625 30.6611 1.33894C29.8038 0.481631 28.641 0 27.4286 0H4.57143ZM25.1429 9.14286C25.1429 8.53665 24.902 7.95527 24.4734 7.52661C24.0447 7.09796 23.4634 6.85714 22.8571 6.85714C22.2509 6.85714 21.6696 7.09796 21.2409 7.52661C20.8122 7.95527 20.5714 8.53665 20.5714 9.14286V22.8571C20.5714 23.4634 20.8122 24.0447 21.2409 24.4734C21.6696 24.902 22.2509 25.1429 22.8571 25.1429C23.4634 25.1429 24.0447 24.902 24.4734 24.4734C24.902 24.0447 25.1429 23.4634 25.1429 22.8571V9.14286ZM18.2857 13.7143C18.2857 13.1081 18.0449 12.5267 17.6162 12.098C17.1876 11.6694 16.6062 11.4286 16 11.4286C15.3938 11.4286 14.8124 11.6694 14.3838 12.098C13.9551 12.5267 13.7143 13.1081 13.7143 13.7143V22.8571C13.7143 23.4634 13.9551 24.0447 14.3838 24.4734C14.8124 24.902 15.3938 25.1429 16 25.1429C16.6062 25.1429 17.1876 24.902 17.6162 24.4734C18.0449 24.0447 18.2857 23.4634 18.2857 22.8571V13.7143ZM11.4286 20.5714C11.4286 19.9652 11.1878 19.3838 10.7591 18.9552C10.3304 18.5265 9.74907 18.2857 9.14286 18.2857C8.53665 18.2857 7.95527 18.5265 7.52661 18.9552C7.09796 19.3838 6.85714 19.9652 6.85714 20.5714V22.8571C6.85714 23.4634 7.09796 24.0447 7.52661 24.4734C7.95527 24.902 8.53665 25.1429 9.14286 25.1429C9.74907 25.1429 10.3304 24.902 10.7591 24.4734C11.1878 24.0447 11.4286 23.4634 11.4286 22.8571V20.5714Z" fill="#A8A8A8"/>
</svg>
